<?xml version="1.0" encoding="iso-8859-1"?>
<!-- Generator: Adobe Illustrator 19.0.0, SVG Export Plug-In . SVG Version: 6.00 Build 0)  -->
<svg version="1.1" id="Layer_1" xmlns="http://www.w3.org/2000/svg" xmlns:xlink="http://www.w3.org/1999/xlink" x="0px" y="0px"
	 viewBox="0 0 512 512" style="enable-background:new 0 0 512 512;" xml:space="preserve">
<path style="fill:#FEDCD7;" d="M502.865,188.05C473.094,79.648,373.856,0,256,0C114.615,0,0,114.616,0,256
	c0,117.856,79.648,217.094,188.05,246.865L502.865,188.05z"/>
<path style="fill:#FCB9B0;" d="M512,256c0-23.529-3.191-46.309-9.135-67.95l-89.458-89.458L98.592,413.408l89.458,89.458
	C209.691,508.809,232.471,512,256,512C397.384,512,512,397.384,512,256z"/>
<path style="fill:#F8513A;" d="M256,33.391L197.418,256L256,478.609c122.943,0,222.609-99.665,222.609-222.609
	S378.943,33.391,256,33.391z"/>
<circle style="fill:#FFFFFF;" cx="256" cy="256" r="200.348"/>
<path style="fill:#F72E12;" d="M256,77.913c-98.355,0-178.087,79.732-178.087,178.087h22.261l223.91-140.184l11.163-19.334
	C311.378,84.6,284.472,77.913,256,77.913z"/>
<path style="fill:#D92444;" d="M324.084,396.184L100.174,256H77.913c0,98.355,79.732,178.087,178.087,178.087
	c28.472,0,55.378-6.687,79.246-18.569L324.084,396.184z"/>
<path style="fill:#F72E12;" d="M256,411.826c24.417,0,47.512-5.631,68.084-15.642L243.148,256H100.174
	C100.174,342.061,169.939,411.826,256,411.826z"/>
<path style="fill:#F8513A;" d="M100.174,256h142.974l80.936-140.184c-20.571-10.011-43.668-15.642-68.084-15.642
	C169.939,100.174,100.174,169.939,100.174,256z"/>
<path style="fill:#D92444;" d="M354.513,107.631l-11.161,19.331l68.076,117.907h22.301
	C430.195,187.575,399.578,137.613,354.513,107.631z"/>
<g>
	<path style="fill:#F72E12;" d="M343.352,126.963L275.278,244.87h136.15C407.965,195.81,381.787,153.032,343.352,126.963z"/>
	<path style="fill:#F72E12;" d="M411.429,267.13l-68.077,117.907l11.16,19.331c45.065-29.982,75.681-79.942,79.216-137.238H411.429
		L411.429,267.13z"/>
</g>
<path style="fill:#F8513A;" d="M275.278,267.13l68.074,117.907c38.436-26.07,64.613-68.847,68.076-117.907H275.278z"/>
<path style="fill:#FA7461;" d="M33.391,256c0,122.943,99.665,222.609,222.609,222.609V33.391
	C133.057,33.391,33.391,133.057,33.391,256z"/>
<g>
	<rect x="55.652" y="233.739" style="fill:#F8513A;" width="22.261" height="22.261"/>
	<rect x="89.043" y="200.348" style="fill:#F8513A;" width="22.261" height="22.261"/>
	<rect x="133.565" y="389.565" style="fill:#F8513A;" width="22.261" height="22.261"/>
	<rect x="133.565" y="100.174" style="fill:#F8513A;" width="22.261" height="22.261"/>
	<rect x="166.957" y="133.565" style="fill:#F8513A;" width="22.261" height="22.261"/>
	<rect x="211.478" y="333.913" style="fill:#F8513A;" width="22.261" height="22.261"/>
</g>
<g>
</g>
<g>
</g>
<g>
</g>
<g>
</g>
<g>
</g>
<g>
</g>
<g>
</g>
<g>
</g>
<g>
</g>
<g>
</g>
<g>
</g>
<g>
</g>
<g>
</g>
<g>
</g>
<g>
</g>
</svg>
